<svg xmlns="http://www.w3.org/2000/svg" width="155" height="156" viewBox="0 0 155 156"><g><g><path fill="#333" d="M111.956 142.81c-2.464 7.527-7.197 9.47-14.199 5.826-3.968 6.848-8.999 7.759-15.094 2.732-5.297 5.87-10.407 5.708-15.329-.482-6.396 4.634-11.36 3.409-14.894-3.675-7.215 3.196-11.818.96-13.81-6.708-7.717 1.618-11.757-1.53-12.119-9.447-7.883-.03-11.184-3.954-9.9-11.773-7.706-1.677-10.122-6.205-7.25-13.585-7.19-3.25-8.616-8.185-4.28-14.803-6.36-4.682-6.736-9.807-1.126-15.375-5.252-5.909-4.56-11 2.08-15.273-3.916-6.878-2.185-11.713 5.193-14.505-2.407-7.546.286-11.914 8.08-13.103-.794-7.884 2.744-11.594 10.614-11.128.854-7.878 5.082-10.767 12.684-8.667 2.464-7.527 7.197-9.47 14.199-5.826C60.773.17 65.804-.741 71.899 4.286c5.297-5.87 10.407-5.708 15.329.482 6.396-4.633 11.36-3.408 14.894 3.675 7.215-3.195 11.818-.96 13.81 6.708 7.717-1.618 11.757 1.53 12.119 9.447 7.883.03 11.184 3.954 9.9 11.773 7.706 1.677 10.122 6.206 7.25 13.585 7.19 3.25 8.616 8.186 4.28 14.804 6.36 4.682 6.736 9.807 1.125 15.374 5.253 5.909 4.56 11-2.079 15.273 3.916 6.878 2.185 11.713-5.193 14.506 2.407 7.546-.286 11.913-8.08 13.102.794 7.884-2.744 11.594-10.614 11.128-.854 7.878-5.082 10.767-12.684 8.667z"/></g></g></svg>